<svg width="20" height="20" viewBox="0 0 20 20" fill="none" xmlns="http://www.w3.org/2000/svg">
<path d="M14.6269 0H5.17413C2.28856 0 0 2.4 0 5.4V14.6C0 17.5 2.28856 19.9 5.27363 20H14.7264C17.6119 20 20 17.6 20 14.6V5.4C19.9005 2.4 17.6119 0 14.6269 0ZM18.1095 14.5C18.1095 16.5 16.5174 18.2 14.4279 18.2H5.37313C3.38308 18.2 1.69154 16.5 1.79104 14.5V5.5C1.79104 3.5 3.38308 1.8 5.37313 1.8H14.4279C16.4179 1.8 18.1095 3.5 18.1095 5.5V14.5Z" fill="white"/>
<path d="M10.098 5.00308C7.35457 4.90507 5.00308 7.15928 5.00308 9.90353C4.9051 12.6478 7.15861 15 9.90202 15C12.6454 15 14.9969 12.8438 14.9969 10.0995V10.0015C15.0949 7.25729 12.8414 5.00308 10.098 5.00308ZM10.098 13.2358C8.33436 13.2358 6.86468 11.8637 6.7667 10.0995C6.7667 8.33539 8.1384 6.86525 9.90202 6.76724C11.6656 6.66923 13.1353 8.13937 13.2333 9.90353V10.0015C13.3313 11.7657 11.8616 13.2358 10.098 13.2358Z" fill="white"/>
<path d="M15 3C15.5455 3 16 3.41667 16 4C16 4.58333 15.5455 5 15 5C14.4545 5 14 4.58333 14 4C14 3.41667 14.4545 3 15 3Z" fill="white"/>
</svg>
