<svg width="18" height="18" viewBox="0 0 18 18" fill="none" xmlns="http://www.w3.org/2000/svg">
<path d="M8.00611 1.10388C8.4127 0.280173 9.5873 0.280172 9.99389 1.10388L11.8324 4.82843C11.9937 5.15523 12.3053 5.38185 12.6659 5.43456L16.7791 6.03575C17.6878 6.16858 18.05 7.28565 17.3921 7.92647L14.4176 10.8236C14.1562 11.0782 14.0369 11.4453 14.0986 11.805L14.8003 15.8965C14.9556 16.802 14.0051 17.4925 13.192 17.0649L9.5159 15.1317C9.19293 14.9618 8.80707 14.9618 8.48411 15.1317L4.80802 17.0649C3.99488 17.4925 3.04439 16.802 3.1997 15.8965L3.90145 11.805C3.96314 11.4453 3.84381 11.0782 3.58238 10.8236L0.607895 7.92647C-0.0500285 7.28565 0.31217 6.16858 1.22094 6.03575L5.33405 5.43456C5.69467 5.38185 6.00633 5.15523 6.16764 4.82843L8.00611 1.10388Z" fill="#F9B043"/>
</svg>
