<svg width="19" height="16" viewBox="0 0 19 16" fill="none" xmlns="http://www.w3.org/2000/svg">
<path d="M5.97534 15.9999C13.1455 15.9999 17.0665 9.84476 17.0665 4.5075C17.0665 4.33268 17.0631 4.15859 17.0555 3.98546C17.8166 3.41527 18.4781 2.70373 19 1.89383C18.3016 2.21564 17.5498 2.432 16.7614 2.52988C17.5662 2.02963 18.1841 1.23863 18.4755 0.295692C17.7223 0.758373 16.8882 1.09452 16.0002 1.27608C15.2889 0.490974 14.2761 0 13.1547 0C11.0021 0 9.25628 1.80883 9.25628 4.03856C9.25628 4.35568 9.29056 4.66389 9.35737 4.95958C6.11756 4.79067 3.24457 3.18351 1.32216 0.739471C0.987525 1.33627 0.794412 2.02975 0.794412 2.76971C0.794412 4.17087 1.48262 5.40818 2.52906 6.13176C1.88953 6.11141 1.28881 5.92949 0.763621 5.6267C0.76304 5.64367 0.76304 5.66017 0.76304 5.67823C0.76304 7.63442 2.1067 9.26771 3.89061 9.6378C3.56294 9.73015 3.2182 9.77987 2.86265 9.77987C2.6119 9.77987 2.36743 9.75435 2.12993 9.70703C2.62619 11.3119 4.06536 12.4797 5.77154 12.5125C4.4373 13.5961 2.75656 14.2415 0.929893 14.2415C0.615707 14.2415 0.305123 14.2228 0 14.1855C1.72523 15.3313 3.77383 16 5.97546 16" fill="white"/>
</svg>
